# xmcd
#
# Track frame offsets: 
#        150
#        15966
#        29796
#        37413
#        58691
#        81332
#        100965
#        114383
#        129326
#        143782
#        158012
#        167427
#        194038
#        208521
#        226683
#        239042
#
# Disc length: 3331 seconds
#
# Revision: 1
# Processed by: cddbd v1.5.2PL0 Copyright (c) Steve Scherf et al.
# Submitted via: ExactAudioCopy v0.99pb4
#
DISCID=db0d0110
DTITLE=Various Artist - Jazz Duets, Jazz Duos CD2 (The Classics)
DYEAR=2007
DGENRE=Jazz
TTITLE0=Bobby Cole and Kathy Kelly/Perfect Day
TTITLE1=Louis Armstrong and Louis Jordan/You Rascal You
TTITLE2=Peggy Lee and Bing Crosby/It's A Good Day
TTITLE3=Jeri Brown and The Late Leon Thomas/Oo-Shoo-Be-Doo-Be
TTITLE4=Ray Charles and Dee Dee Bridgewater/Precious Thing (Till The Nex
TTITLE4=t... Somewhere)
TTITLE5=Clark Terry and Red Mitchell/Hey Mr. Mumbles, What Did You Say
TTITLE6=Frankie Laine and Jo Stafford/Way Down Yonder In New Orleans
TTITLE7=Billie Holiday and Louis Armstrong/My Sweet Hunk Of Trash
TTITLE8=Ella Fitzgerald and Louis Jordan/Ain't Nobody's Business But My 
TTITLE8=Own
TTITLE9=Frank Sinatra and Rosemary Clooney/Peach Tree Street
TTITLE10=Johnie Ray and Doris Day/Candy Lips
TTITLE11=Louis Armstrong and Ella Fitzgerald/Cheek To Cheek
TTITLE12=Jo Stafford and Johnny Mercer/Candy
TTITLE13=Sarah Vaughan and Billy Eckstine/Alexander's Ragtime Band
TTITLE14=Rosemary Clooney and Betty Clooney/Sisters
TTITLE15=Nat King Cole, Moore and Miller/Straighten Up And Fly Right
EXTD=YEAR: 2007
EXTT0=
EXTT1=
EXTT2=
EXTT3=
EXTT4=
EXTT5=
EXTT6=
EXTT7=
EXTT8=
EXTT9=
EXTT10=
EXTT11=
EXTT12=
EXTT13=
EXTT14=
EXTT15=
PLAYORDER=
